# xmcd
# 
# Track frame offsets:
#     150
#     21318
#     32114
#     49431
#     77373
#     96602
#     118278
#     136853
#     152539
#     164752
#     180902
#     207661
#     230085
#     249165
#     274222
# 
# Disc length: 4440
# 
# Revision: 2
# Processed by: cddbd v1.5.2PL0 Copyright (c) Steve Scherf et al.
# Submitted via: BonkEnc v1.0
# 
DISCID=d511560f
DTITLE=RASTAPÉ - CANTANDO A HISTÓRIA DO FORRÓ
DYEAR=0
DGENRE=
TTITLE0=POT-POURRI LUIZ GONZAGA
TTITLE1=SEBASTIANA
TTITLE2=BATE CORAÇÃO
TTITLE3=POT-POURRI COM FAFÁ DE BELÉM E MARIANA
TTITLE4=ABRI A PORTA
TTITLE5=POT-POURRI DOMINGUINHOS
TTITLE6=HOMEM COM H
TTITLE7=PROCURANDO TU COM TRIO NORDESTINO
TTITLE8=FEIRA DE MANGAIO
TTITLE9=FORRÓ E PAIXÃO
TTITLE10=PEDRA DE RESPONSA COM ALCIONE
TTITLE11=COLO DE MENINA
TTITLE12=BICHO DO MATO COM ALFAIA
TTITLE13=POT-POURRI
TTITLE14=Faixa de Dados
EXTD=
EXTT0=
EXTT1=
EXTT2=
EXTT3=
EXTT4=
EXTT5=
EXTT6=
EXTT7=
EXTT8=
EXTT9=
EXTT10=
EXTT11=
EXTT12=
EXTT13=
EXTT14=
PLAYORDER=
